<?xml version="1.0" encoding="UTF-8"?>
<svg id="Capa_1" xmlns="http://www.w3.org/2000/svg" version="1.1" viewBox="0 0 340 90">
  <!-- Generator: Adobe Illustrator 29.0.1, SVG Export Plug-In . SVG Version: 2.1.0 Build 192)  -->
  <defs>
    <style>
      .st0 {
        fill: #ef7951;
      }
    </style>
  </defs>
  <path class="st0" d="M101,86.3v-12.1c-1.5,4.3-4,7.6-7.4,10.1-3.4,2.5-7.4,3.7-11.9,3.7s-5.1-.5-7.2-1.4c-2.2-.9-4-2.2-5.6-3.7-1.6-1.6-2.8-3.5-3.7-5.7-.9-2.2-1.3-4.7-1.3-7.4,0-5.7,2-10.2,5.9-13.5,3.9-3.3,9.3-4.9,16.2-4.9s4,.1,6.6.4c2.5.2,5.3.6,8.4,1.2v-.9c0-7-4.4-10.4-13.1-10.4s-5.7.3-8.8.9c-3.2.6-6.4,1.4-9.6,2.6v-15.2c1.8-.6,3.8-1.2,5.8-1.7,2-.5,4-.9,6.1-1.2,2-.3,4.1-.6,6-.8,2-.2,3.8-.3,5.5-.3,8.3,0,14.7,2.2,19.4,6.5,4.7,4.4,7,10.4,7,18v35.9h-18.2ZM81.6,68.6c0,2.3.7,4.1,2.2,5.5,1.5,1.3,3.4,2,5.8,2s5.9-1.2,8.1-3.7c2.2-2.5,3.2-5.5,3.2-9.3v-2.3c-.9-.3-1.9-.5-3.1-.7-1.2-.1-2.3-.2-3.4-.2-4.1,0-7.3.8-9.5,2.3-2.2,1.5-3.4,3.6-3.4,6.3Z"/>
  <path class="st0" d="M151.5,25.4c3.7,0,7.5.3,11.4,1,3.9.7,7.4,1.6,10.5,2.7v15.7c-1.4-.6-2.9-1.2-4.6-1.8-1.7-.6-3.4-1-5.2-1.4-1.8-.4-3.6-.7-5.4-.9-1.8-.2-3.5-.4-5.1-.4-2.5,0-4.4.4-5.8,1.1-1.4.8-2.1,1.8-2.1,3.1s.8,2.2,2.3,3.1c1.6.9,4,1.8,7.4,2.7,8.1,1.9,13.9,4.3,17.3,7.2,3.4,2.9,5.2,7,5.2,12.1s-2.4,10.3-7.2,13.5c-4.8,3.2-11.5,4.8-20.3,4.8s-7.8-.3-11.7-1c-3.9-.7-7.4-1.6-10.6-2.8v-16.3c1.6.7,3.3,1.4,5.2,2.1,1.9.7,3.8,1.2,5.8,1.7,2,.5,3.9.9,5.8,1.1,1.9.3,3.7.4,5.3.4,5.9,0,8.9-1.5,8.9-4.4s-.9-2.7-2.8-3.7c-1.9-.9-4.6-1.9-8.2-2.7-7.5-1.8-12.8-4.2-16.1-7.2-3.3-3-4.9-6.9-4.9-11.7s2.2-10.1,6.6-13.4c4.4-3.2,10.4-4.8,18.2-4.8Z"/>
  <path class="st0" d="M179.8,42v-15h7.8v-11.3h18.2v11.3h13v15h-13v21.1c0,3.1.7,5.4,2.2,6.9,1.5,1.5,3.6,2.3,6.4,2.3s1.8,0,2.9-.2c1-.1,2.1-.4,3.2-.8v14.6c-3.1.9-6.5,1.4-10.2,1.4-7.4,0-13-1.8-16.9-5.3-3.9-3.5-5.8-8.6-5.8-15.4v-24.7h-7.8Z"/>
  <path class="st0" d="M226,56.6c0-4.7.7-8.9,2.2-12.8,1.5-3.8,3.6-7.1,6.3-9.9,2.7-2.7,5.9-4.8,9.7-6.4,3.8-1.5,7.9-2.3,12.5-2.3s8.7.8,12.5,2.3c3.8,1.5,7,3.6,9.6,6.4,2.6,2.7,4.7,6,6.2,9.9,1.5,3.8,2.2,8.1,2.2,12.8s-.7,8.9-2.2,12.8c-1.5,3.9-3.6,7.2-6.2,9.9-2.6,2.7-5.9,4.8-9.6,6.4-3.8,1.5-7.9,2.3-12.5,2.3s-8.7-.8-12.5-2.3c-3.8-1.5-7-3.6-9.7-6.4-2.7-2.7-4.8-6-6.3-9.9-1.5-3.9-2.2-8.2-2.2-12.8ZM244.3,56.6c0,5,1.1,9,3.4,11.9,2.2,3,5.3,4.5,9,4.5s6.8-1.5,9-4.5c2.2-3,3.3-6.9,3.3-11.9s-1.1-8.9-3.3-11.9c-2.2-2.9-5.2-4.4-9-4.4s-6.8,1.5-9,4.4c-2.2,2.9-3.4,6.9-3.4,11.9Z"/>
  <path class="st0" d="M337.6,41c-7.9,0-13.8,1.6-17.6,4.7-3.8,3.2-5.7,8-5.7,14.5v26.1h-18.2V27.1h18.2v14c4-10.4,11.8-15.6,23.2-15.6v15.4Z"/>
  <g>
    <polygon class="st0" points="23.8 66.8 38.7 51.4 38.6 51.4 62.1 27.1 40.9 27.1 20.6 48.9 20.6 2 2.4 2 2.4 86.3 20.6 86.3 20.6 70.2 23.8 66.8 23.8 66.8"/>
    <polygon class="st0" points="31.8 72.1 42 86.3 63.4 86.3 44.3 59.3 31.8 72.1"/>
  </g>
</svg>